<?xml version="1.0" standalone="no"?>
<!DOCTYPE svg PUBLIC "-//W3C//DTD SVG 20010904//EN"
 "http://www.w3.org/TR/2001/REC-SVG-20010904/DTD/svg10.dtd">
<svg version="1.0" xmlns="http://www.w3.org/2000/svg"
 width="512.000000pt" height="512.000000pt" viewBox="0 0 512.000000 512.000000"
 preserveAspectRatio="xMidYMid meet">
<metadata>
Created by potrace 1.14, written by Peter Selinger 2001-2017
</metadata>
<g transform="translate(0.000000,512.000000) scale(0.100000,-0.100000)"
fill="#000000" stroke="none">
<path d="M2515 4989 c-22 -12 -256 -145 -520 -297 -264 -151 -500 -286 -525
-300 -25 -14 -49 -28 -55 -32 -5 -4 -30 -19 -55 -32 -39 -22 -80 -46 -222
-127 -18 -10 -89 -51 -156 -90 -68 -39 -126 -71 -128 -71 -2 0 -24 -13 -50
-30 -70 -44 -85 -73 -70 -136 8 -37 24 -52 86 -85 25 -13 52 -29 60 -35 8 -6
35 -22 60 -36 25 -13 56 -31 70 -39 14 -9 142 -84 285 -166 143 -83 274 -159
292 -169 31 -19 140 -82 198 -114 17 -10 113 -66 215 -125 102 -60 199 -116
215 -125 17 -10 82 -48 145 -85 162 -96 203 -111 220 -86 4 7 155 97 286 172
37 21 546 317 584 339 72 43 182 107 265 154 55 31 107 61 115 67 20 12 233
135 290 167 25 13 50 28 55 32 18 14 119 70 153 86 39 17 71 65 65 97 -3 12
-12 32 -21 44 -13 17 -335 209 -602 360 -19 11 -91 53 -160 93 -68 40 -138 81
-155 90 -16 9 -183 106 -370 215 -187 108 -360 209 -385 223 -25 14 -58 34
-75 44 -39 23 -61 23 -110 -3z"/>
<path d="M426 3304 c-41 -40 -40 -22 -41 -1083 0 -917 1 -1028 15 -1054 12
-22 65 -58 201 -137 101 -59 292 -170 424 -246 132 -77 249 -145 260 -151 11
-7 54 -32 95 -56 41 -24 95 -55 120 -69 25 -14 113 -64 195 -113 83 -48 169
-99 192 -111 23 -13 91 -53 151 -88 60 -35 126 -70 147 -77 37 -14 38 -13 66
21 23 27 29 45 30 85 0 27 1 488 1 1023 1 535 5 975 10 978 17 10 8 59 -12 69
-23 11 -257 146 -365 210 -97 57 -218 127 -525 305 -146 84 -298 173 -338 197
-40 23 -75 43 -78 43 -2 0 -21 11 -42 23 -59 38 -348 205 -402 234 -34 18 -85
16 -104 -3z"/>
<path d="M4575 3301 c-49 -30 -398 -233 -430 -251 -83 -47 -231 -133 -240
-140 -5 -4 -35 -21 -65 -37 -31 -16 -71 -40 -90 -52 -19 -12 -228 -134 -465
-271 -246 -142 -438 -260 -450 -275 -19 -25 -20 -45 -19 -1054 0 -1121 -3
-1066 56 -1097 31 -16 65 -18 70 -5 2 8 333 204 583 346 22 12 118 68 214 124
95 55 175 101 178 101 2 0 16 8 31 19 24 16 180 107 610 355 67 39 130 82 139
96 16 23 17 113 18 1065 1 648 -2 1048 -8 1060 -6 11 -15 23 -21 27 -20 13
-80 7 -111 -11z"/>
</g>
</svg>
